<svg xmlns="http://www.w3.org/2000/svg" viewBox="0 0 100 100" fill="none">
<defs><linearGradient id="bg" x1="8" y1="6" x2="88" y2="100" gradientUnits="userSpaceOnUse"><stop stop-color="#59425e"/><stop offset="1" stop-color="#241e30"/></linearGradient></defs>
<path fill="url(#bg)" d="M0 0h100v100H0z"/>
<path d="M20 63c0 14 18 25 35 20" stroke="#dfbc84" stroke-width="3" stroke-linecap="round" opacity=".4"/>
<g transform="rotate(-27 50 50)">
<path d="M31 27c-2 14 3 24 13 31l5-5c-3-13-9-23-18-26Z" fill="#dfbc84"/>
<path d="M69 27c2 14-3 24-13 31l-5-5c3-13 9-23 18-26Z" fill="#dfbc84"/>
<path d="M50 20c-9 10-10 24-5 37h10c5-13 4-27-5-37Z" fill="#fff0d6"/>
<path d="M50 31v20" stroke="#a17b51" stroke-width="2.4" stroke-linecap="round"/>
<path d="M40 57h20l-2 14a8 8 0 0 1-16 0l-2-14Z" fill="#fff0d6"/>
<path d="M41 60h18" stroke="#e3bc79" stroke-width="3"/>
</g>
<circle cx="75" cy="27" r="3" fill="#e3bc79"/>
</svg>
