<svg xmlns="http://www.w3.org/2000/svg" viewBox="0 0 240 240" fill="none">
 <defs><radialGradient id="halo"><stop stop-color="#eee5fa"/><stop offset="1" stop-color="#faf7fe" stop-opacity="0"/></radialGradient></defs>
 <circle cx="120" cy="113" r="90" fill="url(#halo)"/>
 <circle cx="120" cy="113" r="76" stroke="#d4c1e4" stroke-opacity=".55"/>
 <path d="m60 180 11 29h98l11-29M71 209l13-29m85 29-13-29M120 188v21M67 197h106" stroke="#d5c4e4" stroke-opacity=".65" stroke-width="1.4"/>
 <g stroke="#997cb6" stroke-width="1.7" stroke-linecap="round" stroke-linejoin="round">
  <path d="M111 162C90 142 70 111 76 76c17 17 35 46 43 85Z" fill="#f4effa"/><path d="m82 91 31 64"/>
  <path d="M129 162c21-20 41-51 35-86-17 17-35 46-43 85Z" fill="#f4effa"/><path d="m158 91-31 64"/>
  <path d="M115 162c-17-28-24-65-13-108 12 23 19 61 20 107Z" fill="#faf7ff"/><path d="m106 73 11 83"/>
  <path d="M125 162c17-28 24-65 13-108-12 23-19 61-20 107Z" fill="#faf7ff"/><path d="m134 73-11 83"/>
  <path d="M115 162c-8-37-7-78 5-119 12 41 13 82 5 119Z" fill="#fcfaff"/><path d="M120 63v91"/>
  <path d="M108 163h24v16c0 9-5 15-12 15s-12-6-12-15Z" fill="#ece3f6" stroke-width="2"/>
  <path d="M109 170h22m-21 6h20" stroke="#b29acb" stroke-width="1.2"/>
 </g>
 <path d="m49 117 3 5-3 5-3-5Zm140-29 3 5-3 5-3-5Z" fill="#c6b3d8" fill-opacity=".55"/>
</svg>
